<svg width="151" height="37" viewBox="0 0 151 37" fill="none" xmlns="http://www.w3.org/2000/svg">
<path d="M112.575 30.6072L114.352 24.7739L115.66 20.4157L117.42 14.7165C117.498 14.4594 117.627 14.0292 117.805 13.4258C117.984 12.8223 118.169 12.1853 118.358 11.5148C118.56 10.8332 118.716 10.2632 118.828 9.80507C118.94 10.2632 119.085 10.8052 119.264 11.431C119.454 12.0456 119.638 12.6547 119.817 13.2581C120.007 13.8504 120.158 14.3365 120.269 14.7165L122.046 20.4157L123.287 24.7739L123.896 26.8429H115.66L114.701 30.6072H127.863H130.662L121.979 6H115.626L106.977 30.6072H112.575Z" fill="#E6E6E6"/>
<path d="M150.561 30.6072H145.397V19.9867H135.722V30.6072H130.541V6H135.722V15.6443H145.397V6H150.561V30.6072Z" fill="#E6E6E6"/>
<path d="M107.602 18.2954C107.602 20.1376 107.374 21.8162 106.917 23.3313C106.459 24.8356 105.763 26.1327 104.826 27.2227C103.901 28.3127 102.725 29.1521 101.299 29.7407C99.8731 30.3184 98.1858 30.6072 96.2372 30.6072C94.2885 30.6072 92.6012 30.3184 91.1751 29.7407C89.749 29.1521 88.5678 28.3127 87.6316 27.2227C86.7063 26.1327 86.015 24.8301 85.5578 23.315C85.1006 21.7999 84.8719 20.1158 84.8719 18.2627C84.8719 15.7884 85.2747 13.6356 86.0803 11.8044C86.8968 9.96223 88.1487 8.5343 89.8361 7.52058C91.5234 6.50686 93.668 6 96.2698 6C98.8607 6 100.989 6.50686 102.655 7.52058C104.331 8.5343 105.572 9.96223 106.378 11.8044C107.194 13.6465 107.602 15.8102 107.602 18.2954ZM90.179 18.2954C90.179 19.9632 90.3858 21.402 90.7995 22.6119C91.2241 23.8109 91.8827 24.7375 92.7753 25.3915C93.668 26.0346 94.8219 26.3561 96.2372 26.3561C97.6741 26.3561 98.839 26.0346 99.7316 25.3915C100.624 24.7375 101.272 23.8109 101.675 22.6119C102.088 21.402 102.295 19.9632 102.295 18.2954C102.295 15.7884 101.827 13.8155 100.891 12.3766C99.9548 10.9378 98.4144 10.2184 96.2698 10.2184C94.8437 10.2184 93.6789 10.5454 92.7753 11.1994C91.8827 11.8425 91.2241 12.769 90.7995 13.979C90.3858 15.178 90.179 16.6168 90.179 18.2954Z" fill="#E6E6E6"/>
<path d="M56.5608 30.521H63.2268L53.7263 17.7741L63.2481 6H56.9547L47.5853 17.8748L56.5608 30.521Z" fill="#22C4D5"/>
<path d="M46.1493 30.521V17.8748V6H40.9999V30.521H46.1493Z" fill="#E6E6E6"/>
<path d="M63.1841 30.6072V6H82.5779V30.6072H77.3984V10.3425H68.3804V30.6072H63.1841Z" fill="#E6E6E6"/>
<path d="M17.6159 0.0108057C18.0073 -0.0396851 18.7525 0.0996027 19.1287 0.23766C20.1384 0.61032 20.9587 1.36865 21.4093 2.34592C21.8867 3.37922 21.9016 4.41358 21.5098 5.47334C21.7349 5.64282 22.2 6.13597 22.4142 6.35143L24.1054 8.04589L29.2711 13.2037C29.9643 13.8936 30.6534 14.6203 31.3599 15.2922C31.4519 15.2573 31.5445 15.2248 31.6381 15.1943C33.7417 14.5186 36.0794 15.9421 36.6328 17.9899C36.7437 18.4008 36.8919 20.3873 36.4443 20.5196C36.2396 20.3875 35.595 19.712 35.3976 19.5114C34.9089 19.0164 34.4151 18.5266 33.9163 18.0418C33.5807 18.1851 33.1835 18.2466 32.8274 18.4152C32.058 18.7795 31.8859 19.4661 31.6179 20.203C32.4565 20.9686 33.4739 22.0466 34.2815 22.8702C33.8532 22.9837 33.3904 23.1109 32.9463 23.1237C32.7766 23.124 32.5974 23.1273 32.4287 23.1172C30.39 22.9963 28.6726 21.1715 28.7015 19.1231C28.7091 18.5775 28.8028 18.1775 28.9387 17.6529C28.029 16.6525 26.8511 15.5335 25.8741 14.5718L22.3863 11.0761C21.3731 10.0717 20.1217 8.87624 19.1641 7.84844C18.3669 8.10049 17.3468 8.15137 16.5455 7.91081C14.7766 7.37978 13.5293 5.57364 13.7102 3.72657C13.7539 3.28106 13.841 2.96071 13.969 2.53207C14.8573 3.35858 15.7708 4.36836 16.6433 5.13699C16.9113 5.02247 17.2068 4.92659 17.4814 4.81427C18.3707 4.45067 18.5482 3.73482 18.8723 2.91836C18.5648 2.67109 16.3247 0.473494 16.3023 0.274924C16.4615 0.0970299 17.3544 0.037669 17.6159 0.0108057Z" fill="#E6E6E6"/>
<path d="M2.13138 13.5797C3.25368 13.4467 4.21159 14.0689 4.95754 14.8303C6.47002 16.374 8.04572 17.8649 9.53766 19.4295C9.30859 19.7678 9.18354 20.1082 9.38402 20.5025C9.49785 20.7212 9.69604 20.8841 9.93274 20.9532C10.3236 21.0702 10.5583 20.9296 10.8859 20.7582C11.0858 20.9373 11.2824 21.1246 11.4733 21.3136C11.6375 21.4758 12.0365 21.8363 12.0248 22.0792C12.0083 22.4252 9.77333 24.5021 9.36563 24.9043C8.32158 25.9968 8.16883 25.3353 7.26617 24.42C7.44474 24.0367 7.58542 23.6566 7.37192 23.2508C7.26651 23.0458 7.08101 22.8936 6.85945 22.8303C6.48551 22.724 6.2146 22.8499 5.89927 23.0197C5.48309 22.6507 4.97689 22.1102 4.57434 21.7082L2.44709 19.5992C1.6143 18.7666 0.256095 17.7554 0.0493493 16.5528C-0.210192 15.0433 0.564233 13.8327 2.13138 13.5797Z" fill="#E6E6E6"/>
<path d="M4.48448 16.1562C4.79481 16.3404 4.70882 16.3822 4.86789 16.664C4.89076 16.7044 5.03742 16.7045 5.07866 16.8349C4.94016 16.9956 4.54867 16.9923 4.32996 17.0739C4.42382 17.3614 4.44153 17.2839 4.37761 17.5368C4.09749 17.5093 3.84136 17.1807 3.62183 16.9744C3.84347 16.7322 4.22912 16.3452 4.48448 16.1562Z" fill="#E6E6E6"/>
<path d="M4.35182 16.5111C4.40849 16.5412 4.39694 16.5441 4.43556 16.6058C4.42159 16.7073 4.24855 16.8555 4.15405 16.9857C4.10206 16.9431 4.10061 16.9306 4.06873 16.8727C4.09859 16.7483 4.2571 16.6086 4.35182 16.5111Z" fill="#E6E6E6"/>
<path d="M1.66881 21.0846C1.99608 21.3405 2.61002 21.9767 2.92183 22.2802C3.24424 22.594 3.89533 23.2062 4.15173 23.5399C4.23038 25.0674 4.15869 27.2613 4.16165 28.8309L4.16783 31.1697C4.17145 31.6061 4.19959 32.2332 4.16038 32.6442C4.987 32.573 6.63663 32.63 7.54067 32.6298L14.2715 32.6295C14.9388 33.1545 16.0631 34.4054 16.7204 35.056C16.7252 35.0923 16.7291 35.1231 16.7323 35.1482L1.6619 35.1506C1.61933 31.9192 1.66037 28.6486 1.65229 25.4132L1.64176 22.6023C1.64035 22.2466 1.61619 21.3971 1.66881 21.0846Z" fill="#22C4D5"/>
<path d="M32.7628 25.7553C33.1735 26.2193 34.9008 27.7673 35.157 28.2719C35.2455 28.4463 35.2042 30.2081 35.2034 30.5747L35.2008 35.1519C34.0004 35.1408 26.3229 35.2518 25.8705 35.0815C25.442 34.7152 25.1284 34.3329 24.7365 33.9459C24.2892 33.5041 23.8405 33.0669 23.3943 32.6225C26.4556 32.6756 29.6375 32.6206 32.7109 32.6292C32.6828 32.0478 32.6744 25.9608 32.7628 25.7553Z" fill="#E6E6E6"/>
<path d="M24.8036 1.57985C25.7039 1.54584 26.7011 1.57947 27.6091 1.56784C30.124 1.53563 32.6815 1.60754 35.1912 1.55944C35.2709 4.97832 35.1161 8.52756 35.2242 11.94C35.0255 11.8632 32.9098 9.71464 32.7005 9.43586C32.6867 7.65672 32.6858 5.87751 32.6975 4.09835C30.9117 4.01115 29.072 4.14327 27.312 4.05356C26.6775 3.53354 25.4411 2.21267 24.8036 1.57985Z" fill="#22C4D5"/>
<path d="M1.6427 1.57549C3.58478 1.59456 5.534 1.55835 7.47663 1.56064C7.8358 1.56107 8.1892 1.54778 8.54784 1.57707C8.86515 1.81704 9.26265 2.24504 9.55122 2.53826C10.0578 3.04994 10.5603 3.56568 11.0586 4.08544C10.3602 4.03498 9.26807 4.06798 8.54568 4.06686C7.08678 4.05801 5.62783 4.06078 4.16898 4.07519C4.2049 4.56887 4.17698 5.41294 4.17589 5.93231L4.17228 10.5041C4.17176 11.1887 4.13686 12.2661 4.2097 12.9175C3.39053 12.0812 2.50752 11.2257 1.67649 10.3913C1.6237 9.51614 1.66058 8.44835 1.65599 7.55259L1.6427 1.57549Z" fill="#E6E6E6"/>
<path d="M6.01528 2.09739L6.14102 2.14512C6.3213 2.45805 6.67912 2.6669 6.47934 3.01224C6.17259 2.74782 5.76921 2.52245 6.01528 2.09739Z" fill="#E6E6E6"/>
<path d="M11.4124 23.8934C11.705 23.9614 18.0115 30.5379 18.7002 31.1075C19.5678 31.8253 19.5731 31.5662 20.5819 31.8918C21.102 32.596 22.1146 34.1942 22.5441 34.9605C22.2357 35.2902 21.7864 35.7445 21.4469 36.0339C21.1017 35.9192 18.9218 34.4971 18.5067 34.1638C18.0782 33.8197 18.2133 32.8806 17.7684 32.4151C17.0877 31.7032 16.3597 31.0259 15.6667 30.3295L10.3065 24.9799C10.5443 24.6924 11.1335 24.1387 11.4124 23.8934Z" fill="#E6E6E6"/>
</svg>
